<?xml version="1.0" encoding="UTF-8"?>
<!DOCTYPE svg PUBLIC "-//W3C//DTD SVG 1.1//EN" "http://www.w3.org/Graphics/SVG/1.1/DTD/svg11.dtd">
<!-- Creator: CorelDRAW 2019 (64-Bit Versión de evaluación) -->
<svg xmlns="http://www.w3.org/2000/svg" xml:space="preserve" width="6.33804cm" height="2.09838cm" version="1.1" style="shape-rendering:geometricPrecision; text-rendering:geometricPrecision; image-rendering:optimizeQuality; fill-rule:evenodd; clip-rule:evenodd"
viewBox="0 0 6363.66 2106.86"
 xmlns:xlink="http://www.w3.org/1999/xlink">
 <defs>
  <style type="text/css">
   <![CDATA[
    .fil0 {fill:#373737}
    .fil1 {fill:white}
   ]]>
  </style>
 </defs>
 <g id="Capa_x0020_1">
  <metadata id="CorelCorpID_0Corel-Layer"/>
  <g id="_1939394820224">
   <path class="fil0" d="M1674.82 752.74c-75.65,0 -79.3,5.84 -142.54,-8.9l71.88 -400.3c12.05,-74.37 50.84,-62.95 177.56,-62.95 34.57,0 129,32.92 162.24,78.29 33.28,45.39 36.28,130.1 19.43,192.46 -28.98,107.3 -157.18,201.4 -288.57,201.4zm-498.9 -445.43c49.4,0 59.25,-8.04 98,-8.9 -5.48,23.47 -9.32,46.09 -13.95,75.13l-30.39 165.59c-5.41,32 -11.36,51.6 -17.43,80.58l-178.75 970.46 311.78 0c42.48,0 32.66,-63.31 53.57,-151.35l65.09 -344.73c11.12,-49.01 -8.11,-61.55 41.2,-66.4 57.89,-5.71 107.06,39.02 380.11,-28.99 76.48,-19.04 167.8,-65.8 222.64,-106.97 155.68,-116.88 262.97,-368.03 201.98,-560.15 -29.57,-93.15 -52.93,-140.58 -143.43,-212.89 -172.28,-137.75 -543.18,-134.07 -731.42,-95.81l-143.31 34.83c-99.51,27.56 -69.22,13.19 -98.89,168.41 -6.47,33.91 -15.88,41.33 -16.81,81.17z"/>
   <path class="fil0" d="M2610.23 1331.82c-156.76,0 -169.49,-302.88 249.45,-302.88 -5.48,65.85 -21.93,160.1 -63.21,212.92 -36.54,46.71 -104.74,89.96 -186.24,89.96zm-169.26 -864.14c0,96.82 -44.54,174.18 -44.54,267.27 29.24,-7.81 5.77,-1.84 25.24,-10.4 110.81,-48.81 276.23,-102.53 396.3,-63.71 93.54,30.26 89.63,83.67 77.36,136.47 -109.96,0 -306.89,22.16 -408.24,63.91l-54.82 25.37c-336.13,152.59 -382.38,560.41 -145.4,670.63 118.1,54.94 270.32,42.96 384.54,-12.77 52.65,-25.7 79.57,-54.49 125.91,-79.01l0 98.01 329.64 0c1.11,-50.84 17.04,-158.01 25.17,-206.42 7.42,-43.98 13.52,-51.01 20.78,-95.05 5.25,-31.84 10.11,-64.07 18.11,-97.71l40.18 -191.45c54.22,-222.64 53.57,-490.39 -220.41,-558.28 -155.05,-38.4 -331.24,-13.35 -482.65,24.49 -38.7,9.68 -55.82,21.37 -87.17,28.66z"/>
   <path class="fil0" d="M3153.67 1821.8l51.08 216.17c7.9,23.8 11.69,51.21 20.18,68.9 165.86,-3.67 347.75,-164.41 448.98,-272.63 1.25,-1.32 3.12,-3.18 4.37,-4.53l32.82 -38.43c16.45,-21.14 25.27,-30.95 39.55,-49.56 149.47,-194.5 246.36,-415.17 358.16,-630.72l315.39 -628.9c11.88,-24.26 9.68,-9.59 12.34,-41.13l-356.35 0 -57.83 129.25c-8.9,19.89 -11.72,32.26 -19.79,51.47 -26.56,63.24 -49.86,118.72 -76.38,181.96l-108.09 275.02c-12.67,40.9 -30.82,52.22 -31.91,101.72 -26.45,-19.4 -32.52,-132.44 -37.22,-176.58 -6.79,-63.55 -18.64,-127.15 -29.21,-193.52 -4.89,-30.82 -7.75,-73.53 -10.99,-95.95 -6,-41.45 -10.9,-61.28 -16.97,-98.83 -34.21,-212.03 65.57,-174.54 -359.96,-174.54 -50.98,0 -1.15,105.75 12.76,183.24 33.38,186.21 94.17,423.98 133.49,623.73l47.56 202.34c14.64,66.53 -6.7,107.33 -66.66,169.04 -83.8,86.26 -114.72,109.53 -216.11,158.07 -21.37,10.24 -20.44,9.46 -45,17.33 -15.35,4.93 -44.21,9.52 -44.21,27.08z"/>
   <path class="fil1" d="M5728.28 1349.64c-135.43,0 -199.52,-148.22 -165.79,-299.41 20.19,-90.42 9.17,-102.66 64.53,-211.63 77.66,-152.79 239.91,-214.07 334.56,-96.47 77.53,96.31 38.14,279.82 1.62,388.09 -29.64,87.96 -123.09,219.41 -234.92,219.41zm-525.62 -276.16c0,153.09 4.37,311.22 141.14,420.09 328.13,261.1 862.27,97.09 992.91,-390.74 46.97,-175.51 40.89,-393.18 -86.45,-533.54l-8.6 -9.22c-1.29,-1.32 -3.05,-3.25 -4.33,-4.56 -189.22,-197.63 -530.21,-166.64 -739.17,-23.94l-109.26 95.61c-1.18,1.42 -2.89,3.41 -4.08,4.86 -49.59,59.18 -79.1,91.25 -114.77,170.28 -31.61,70.08 -67.39,174.65 -67.39,271.15z"/>
   <path class="fil0" d="M374.18 895.28c1.81,-81.23 85.53,-172.74 153.84,-202.48 209.57,-91.28 313.48,140.81 78.18,185.09 -56.72,10.66 -165.53,17.39 -232.02,17.39zm-374.18 231.63c0,436.77 338.95,521.25 690.09,467.35l151.35 -35.7c34.56,-11.56 32.68,-14.71 40.43,-48.65l30.62 -165.36c7.25,-34.96 14.02,-44.02 14.02,-84.03 -36.41,3.05 -46.12,15.69 -79.07,27.86 -24.81,9.2 -49.99,20.51 -79.14,27.77 -101.09,25.14 -254.27,42.44 -348.14,-12.54 -57.18,-33.44 -81.63,-83.21 -81.63,-149.99 326.57,0 730.49,-42.08 730.49,-391.97 0,-354.65 -511.01,-503.79 -879.9,-131.58 -57.18,57.7 -92.07,131.52 -128.57,209.93 -29.51,63.39 -24.65,63.71 -41.16,128.15 -9.46,36.92 -19.4,115.99 -19.4,158.76z"/>
   <path class="fil1" d="M4285.05 1118.02c0,161.84 28.6,262.97 126.7,363.27 137.81,140.88 334.53,137.49 523.03,117.15 73.45,-7.91 63.77,-15.89 107.52,-26.1l53.47 -285.07c-46.71,3.88 -56.92,20.78 -102.99,30.65 -160.74,34.37 -342.44,9.98 -342.44,-191.02 0,-253.88 106.87,-380.08 322.91,-425.51 97.31,-20.44 107.13,8.5 193.78,15.72l53.44 -276.16c-125.05,-29.15 -72.8,-26.76 -204.87,-26.76 -136.9,0 -250.57,39.95 -355.4,90.07 -216.82,103.65 -375.13,367.93 -375.13,613.74z"/>
  </g>
 </g>
</svg>
