<?xml version="1.0" encoding="UTF-8"?>
<!DOCTYPE svg PUBLIC "-//W3C//DTD SVG 1.1//EN" "http://www.w3.org/Graphics/SVG/1.1/DTD/svg11.dtd">
<!-- Creator: CorelDRAW 2019 (64-Bit Versión de evaluación) -->
<svg xmlns="http://www.w3.org/2000/svg" xml:space="preserve" width="1.93882cm" height="0.6419cm" version="1.1" style="shape-rendering:geometricPrecision; text-rendering:geometricPrecision; image-rendering:optimizeQuality; fill-rule:evenodd; clip-rule:evenodd"
viewBox="0 0 159.89 52.94"
 xmlns:xlink="http://www.w3.org/1999/xlink">
 <defs>
  <style type="text/css">
   <![CDATA[
    .fil0 {fill:#373737}
    .fil1 {fill:#FE5700}
   ]]>
  </style>
 </defs>
 <g id="Capa_x0020_1">
  <metadata id="CorelCorpID_0Corel-Layer"/>
  <g id="_1939442460752">
   <path class="fil0" d="M42.08 18.91c-1.9,0 -1.99,0.15 -3.58,-0.22l1.81 -10.06c0.3,-1.87 1.28,-1.58 4.46,-1.58 0.87,0 3.24,0.83 4.08,1.97 0.84,1.14 0.91,3.27 0.49,4.84 -0.73,2.7 -3.95,5.06 -7.25,5.06zm-12.54 -11.19c1.24,0 1.49,-0.2 2.46,-0.22 -0.14,0.59 -0.23,1.16 -0.35,1.89l-0.76 4.16c-0.14,0.8 -0.29,1.3 -0.44,2.02l-4.49 24.38 7.83 0c1.07,0 0.82,-1.59 1.35,-3.8l1.64 -8.66c0.28,-1.23 -0.2,-1.55 1.03,-1.67 1.45,-0.14 2.69,0.98 9.55,-0.73 1.92,-0.48 4.22,-1.65 5.59,-2.69 3.91,-2.94 6.61,-9.25 5.08,-14.07 -0.74,-2.34 -1.33,-3.53 -3.6,-5.35 -4.33,-3.46 -13.65,-3.37 -18.38,-2.41l-3.6 0.88c-2.5,0.69 -1.74,0.33 -2.48,4.23 -0.16,0.85 -0.4,1.04 -0.42,2.04z"/>
   <path class="fil0" d="M65.58 33.46c-3.94,0 -4.26,-7.61 6.27,-7.61 -0.14,1.65 -0.55,4.02 -1.59,5.35 -0.92,1.17 -2.63,2.26 -4.68,2.26zm-4.25 -21.71c0,2.43 -1.12,4.38 -1.12,6.72 0.73,-0.2 0.15,-0.05 0.63,-0.26 2.78,-1.23 6.94,-2.58 9.96,-1.6 2.35,0.76 2.25,2.1 1.94,3.43 -2.76,0 -7.71,0.56 -10.26,1.61l-1.38 0.64c-8.45,3.83 -9.61,14.08 -3.65,16.85 2.97,1.38 6.79,1.08 9.66,-0.32 1.32,-0.65 2,-1.37 3.16,-1.99l0 2.46 8.28 0c0.03,-1.28 0.43,-3.97 0.63,-5.19 0.19,-1.11 0.34,-1.28 0.52,-2.39 0.13,-0.8 0.25,-1.61 0.46,-2.46l1.01 -4.81c1.36,-5.59 1.35,-12.32 -5.54,-14.03 -3.9,-0.96 -8.32,-0.34 -12.13,0.62 -0.97,0.24 -1.4,0.54 -2.19,0.72z"/>
   <path class="fil0" d="M79.24 45.77l1.28 5.43c0.2,0.6 0.29,1.29 0.51,1.73 4.17,-0.09 8.74,-4.13 11.28,-6.85 0.03,-0.03 0.08,-0.08 0.11,-0.11l0.82 -0.97c0.41,-0.53 0.64,-0.78 0.99,-1.25 3.76,-4.89 6.19,-10.43 9,-15.85l7.92 -15.8c0.3,-0.61 0.24,-0.24 0.31,-1.03l-8.95 0 -1.45 3.25c-0.22,0.5 -0.29,0.81 -0.5,1.29 -0.67,1.59 -1.25,2.98 -1.92,4.57l-2.72 6.91c-0.32,1.03 -0.77,1.31 -0.8,2.56 -0.66,-0.49 -0.82,-3.33 -0.94,-4.44 -0.17,-1.6 -0.47,-3.19 -0.73,-4.86 -0.12,-0.77 -0.19,-1.85 -0.28,-2.41 -0.15,-1.04 -0.27,-1.54 -0.43,-2.48 -0.86,-5.33 1.65,-4.39 -9.04,-4.39 -1.28,0 -0.03,2.66 0.32,4.6 0.84,4.68 2.37,10.65 3.35,15.67l1.19 5.08c0.37,1.67 -0.17,2.7 -1.67,4.25 -2.11,2.17 -2.88,2.75 -5.43,3.97 -0.54,0.26 -0.51,0.24 -1.13,0.44 -0.39,0.12 -1.11,0.24 -1.11,0.68z"/>
   <path class="fil1" d="M143.93 33.91c-3.4,0 -5.01,-3.72 -4.17,-7.52 0.51,-2.27 0.23,-2.58 1.62,-5.32 1.95,-3.84 6.03,-5.38 8.41,-2.42 1.95,2.42 0.96,7.03 0.04,9.75 -0.74,2.21 -3.09,5.51 -5.9,5.51zm-13.21 -6.94c0,3.85 0.11,7.82 3.55,10.56 8.24,6.56 21.67,2.44 24.95,-9.82 1.18,-4.41 1.03,-9.88 -2.17,-13.41l-0.22 -0.23c-0.03,-0.03 -0.08,-0.08 -0.11,-0.11 -4.75,-4.97 -13.32,-4.19 -18.57,-0.6l-2.75 2.4c-0.03,0.04 -0.07,0.09 -0.1,0.12 -1.25,1.49 -1.99,2.29 -2.88,4.28 -0.79,1.76 -1.69,4.39 -1.69,6.81z"/>
   <path class="fil0" d="M9.4 22.5c0.05,-2.04 2.15,-4.34 3.87,-5.09 5.27,-2.29 7.88,3.54 1.96,4.65 -1.43,0.27 -4.16,0.44 -5.83,0.44zm-9.4 5.82c0,10.97 8.52,13.1 17.34,11.74l3.8 -0.9c0.87,-0.29 0.82,-0.37 1.02,-1.22l0.77 -4.15c0.18,-0.88 0.35,-1.11 0.35,-2.11 -0.91,0.08 -1.16,0.39 -1.99,0.7 -0.62,0.23 -1.26,0.52 -1.99,0.7 -2.54,0.63 -6.39,1.07 -8.75,-0.32 -1.44,-0.84 -2.05,-2.09 -2.05,-3.77 8.21,0 18.35,-1.06 18.35,-9.85 0,-8.91 -12.84,-12.66 -22.11,-3.31 -1.44,1.45 -2.31,3.3 -3.23,5.27 -0.74,1.59 -0.62,1.6 -1.03,3.22 -0.24,0.93 -0.49,2.91 -0.49,3.99z"/>
   <path class="fil1" d="M107.67 28.09c0,4.07 0.72,6.61 3.18,9.13 3.46,3.54 8.41,3.45 13.14,2.94 1.85,-0.2 1.6,-0.4 2.7,-0.66l1.34 -7.16c-1.17,0.1 -1.43,0.52 -2.59,0.77 -4.04,0.86 -8.6,0.25 -8.6,-4.8 0,-6.38 2.69,-9.55 8.11,-10.69 2.45,-0.51 2.69,0.21 4.87,0.4l1.34 -6.94c-3.14,-0.73 -1.83,-0.67 -5.15,-0.67 -3.44,0 -6.3,1 -8.93,2.26 -5.45,2.6 -9.43,9.24 -9.43,15.42z"/>
  </g>
 </g>
</svg>
