<?xml version="1.0" encoding="UTF-8"?>
<!DOCTYPE svg PUBLIC "-//W3C//DTD SVG 1.1//EN" "http://www.w3.org/Graphics/SVG/1.1/DTD/svg11.dtd">
<!-- Creator: CorelDRAW 2019 (64-Bit Versión de evaluación) -->
<svg xmlns="http://www.w3.org/2000/svg" xml:space="preserve" width="7.9949cm" height="5.12822cm" version="1.1" style="shape-rendering:geometricPrecision; text-rendering:geometricPrecision; image-rendering:optimizeQuality; fill-rule:evenodd; clip-rule:evenodd"
viewBox="0 0 2168.8 1391.15"
 xmlns:xlink="http://www.w3.org/1999/xlink">
 <defs>
  <style type="text/css">
   <![CDATA[
    .fil2 {fill:#F3E3A3;fill-rule:nonzero}
    .fil1 {fill:#E1C87B;fill-rule:nonzero}
    .fil0 {fill:#C4963D;fill-rule:nonzero}
   ]]>
  </style>
 </defs>
 <g id="Capa_x0020_1">
  <metadata id="CorelCorpID_0Corel-Layer"/>
  <path class="fil0" d="M2050.3 116.97c-1.55,1.06 -2.39,2.45 -2.75,3.91 -1.44,0.6 -2.62,1.85 -3.06,3.92 -4.59,21.47 -9.08,42.96 -13.57,64.45 -15.13,-15.79 -29.1,-32.5 -43.69,-48.82 -1.44,-1.61 -3.4,-1.77 -5.09,-1.1 -0.83,-0.15 -1.74,-0.14 -2.75,0.15 -25.53,7.36 -50.94,10.68 -77.1,10.87 15.98,-17.75 32.35,-35.6 44.42,-56.11 0.75,-1.29 0.72,-2.48 0.24,-3.42 0.07,-0.3 0.17,-0.59 0.17,-0.92 0.15,-19.1 -5.85,-38.69 -11.97,-57.28 17.24,7.22 34.49,14.87 52.16,20.54 2.2,0.7 4.15,0.06 5.58,-1.24 1.36,1.17 3.3,1.62 4.98,0.44 8.56,-5.99 15.67,-13.78 23.42,-20.76 6.56,-5.91 13.56,-11.41 20.16,-17.3 -0.54,17.32 0.18,34.61 0.97,51.94 0.11,2.38 1.24,4.07 2.79,5.12 0.23,0.97 0.86,1.85 2.03,2.4 15.97,7.57 32.24,14.43 48.45,21.42 -16.03,5.18 -31.5,12.28 -45.38,21.79zm66.38 -25.78c-19.98,-9.09 -40.1,-17.52 -61.13,-23.74 0.05,-0.38 0.08,-0.78 0.06,-1.21 -0.95,-21.15 -2.03,-42.19 -5.26,-63.14 -0.49,-3.17 -3.59,-3.71 -5.9,-2.53 -1.31,-0.5 -2.82,-0.45 -4.3,0.52 -9.24,6.07 -17.48,13.79 -25.61,21.25 -7.12,6.54 -14.6,13.04 -20.48,20.76 -0.47,-0.58 -1.1,-1.09 -1.89,-1.49 -20.85,-10.5 -43.42,-18.29 -64.93,-27.4 -5.3,-2.25 -12.31,1.49 -10.4,7.99 6.69,22.76 10.87,48.09 21.69,69.32 -21.46,17.47 -38.8,39.99 -56.96,60.7 -4.03,4.59 -1.37,12.01 5.03,12.16 32.29,0.72 64.97,-4.28 95.86,-13.55 13.9,19.85 30.69,37.78 47.77,54.86 3.05,3.05 9.06,1.84 10.02,-2.65 5.3,-24.77 10.6,-49.53 15.79,-74.32 0.28,-0.14 0.56,-0.26 0.85,-0.44 18.33,-11.95 36.89,-21 58.31,-26 4.79,-1.11 6.26,-8.9 1.45,-11.09z"/>
  <path class="fil1" d="M1794.76 549.49c-0.6,1.29 -1.21,2.57 -1.89,3.77 -0.64,-0.11 -1.29,-0.09 -1.93,-0.02 1.41,-1.74 2.88,-3.44 4.26,-5.18 -0.15,0.47 -0.31,0.95 -0.44,1.43zm-12.81 -8.24c-1.43,-2.28 -2.8,-4.62 -4.19,-6.94 2.62,0.82 5.25,1.58 7.86,2.43 -1.2,1.52 -2.45,3.01 -3.67,4.52zm86.34 12.35c-11.22,-4.95 -22.56,-9.55 -33.96,-13.97 -0.75,-14.25 -1.66,-28.49 -2.87,-42.73 -0.61,-7.3 -9.36,-9.79 -13.57,-3.68 -7.55,10.92 -15.44,21.57 -23.49,32.07 -9.63,-3.14 -19.3,-6.14 -29.09,-8.9 -5.78,-1.63 -10.35,4.81 -7.58,9.87 4.76,8.75 9.89,17.36 15.34,25.78 -7.84,9.42 -15.82,18.73 -24.08,27.85 -4.99,5.51 -0.06,13.53 7.05,12.11 13.43,-2.68 26.79,-5.57 40.14,-8.56 7.66,9.08 15.86,17.7 24.75,25.58 0.5,0.45 1.03,0.74 1.54,0.94 0.09,0.12 0.16,0.25 0.25,0.37 4.03,5.55 13.64,4.09 13.62,-3.69 -0.06,-10.84 -0.27,-21.66 -0.57,-32.48 10.3,-2.54 20.59,-5.14 30.86,-7.86 5.33,-1.41 7.32,-10.22 1.66,-12.72z"/>
  <g id="_1939392578176">
   <path class="fil0" d="M4.5 1032.35c81.5,-105.92 183.32,-196.86 300.31,-261.95 109.44,-60.9 232.97,-108.38 360.3,-94.21 0.8,0.09 0.61,1.3 -0.18,1.23 -66.9,-6.22 -127.85,14.38 -188.88,39.52 -59.06,24.34 -116.12,54.2 -169.6,89.12 -104.29,68.08 -195.58,152.57 -269.6,252.83 -15.93,21.59 -48.82,-5.14 -32.34,-26.54z"/>
   <path class="fil2" d="M672.48 714.38c16.76,31.89 20.84,71.99 25.78,107.22 5.17,36.92 7.57,74.55 6.66,111.82 -1.92,78.8 -22.67,153.93 -57.87,224.24 -9.41,18.79 -39.49,5.48 -29.89,-13.28 33.45,-65.49 55.13,-136.72 66.33,-209.35 5.75,-37.28 7.83,-74.72 5.39,-112.38 -2.38,-36.68 -14.07,-71.75 -17.19,-108.06 -0.04,-0.5 0.59,-0.6 0.8,-0.2z"/>
   <path class="fil2" d="M126.97 460.7c176.63,-28.14 365.2,40.76 493.72,161.77 1.92,1.81 -0.5,4.84 -2.63,3.2 -141.38,-108.58 -311.78,-146.1 -486.96,-127.92 -24.02,2.5 -27.71,-33.29 -4.13,-37.05z"/>
   <path class="fil0" d="M578.01 21.14c63.35,83.66 117.49,170.33 140.11,274.24 22.45,103.1 14.15,212.42 -27.57,309.52 -1.35,3.13 -5.7,1 -4.73,-2.1 59.29,-188.29 0.87,-412.96 -137.15,-554.12 -20.6,-21.06 11.63,-50.94 29.35,-27.54z"/>
   <path class="fil0" d="M753.69 624c66.41,-66.3 138.87,-107.44 232.93,-120.74 52.29,-7.39 105.74,-5.91 158.07,0.3 51.46,6.12 112.82,12.99 160.05,35.19 19.7,9.26 10.51,37.68 -10.46,35.86 -48.31,-4.19 -96.77,-22.43 -145.14,-29.58 -48.02,-7.09 -96.6,-9.87 -145.04,-5.94 -82.32,6.7 -180.97,32.88 -242.09,91.73 -4.9,4.72 -13.27,-1.9 -8.33,-6.84z"/>
   <path class="fil1" d="M784.82 696.48c159.5,76.58 288.69,239.3 338.15,408.49 8.23,28.17 -33.52,45.07 -43.1,16.58 -28.1,-83.56 -62.84,-161.43 -115.39,-232.8 -52.26,-70.97 -114.89,-131.1 -183.21,-186.5 -2.96,-2.4 0.03,-7.46 3.55,-5.77z"/>
   <path class="fil1" d="M751.42 742.57c64.41,95.99 93.65,226.64 68.57,340.39 -4.46,20.22 -34.27,16.01 -31.95,-4.8 6.37,-57.09 9.5,-111.81 3.42,-169.2 -6.17,-58.3 -20.83,-110.87 -41.67,-165.51 -0.37,-0.97 1.03,-1.77 1.63,-0.88z"/>
   <path class="fil1" d="M451.67 986.91c36.58,-32.62 73.88,-58.87 102.42,-99.92 29.66,-42.66 46.94,-89.96 59.93,-139.91 0.84,-3.26 5.22,-2.56 5.12,0.77 -1.67,53.11 -19.17,105.32 -45.26,151.34 -24.41,43.03 -57.97,91.06 -102.26,115.45 -19.21,10.58 -36.58,-12.91 -19.96,-27.74z"/>
   <path class="fil0" d="M163.53 668.14c39.96,-43.95 99.67,-64.14 157.85,-67.69 31.27,-1.91 63.37,0.59 94.5,3.3 31.47,2.73 61.42,6.29 87.42,25.51 3.23,2.38 -0.19,8.16 -3.77,6.11 -46.27,-26.45 -119.11,-15.73 -170.01,-7.67 -52.38,8.29 -99.74,25.84 -138.46,63.04 -16.06,15.43 -43.33,-5.24 -27.54,-22.59z"/>
   <path class="fil1" d="M394.52 178.11c135,62.56 233.16,221.07 242.24,367.33 0.36,5.72 -7.41,6.32 -8.65,0.96 -16.74,-73.25 -44.85,-140.5 -90.75,-200.5 -45.1,-58.97 -99.61,-98.3 -161.92,-136.88 -17.74,-10.98 0.69,-39.43 19.07,-30.92z"/>
   <path class="fil1" d="M930.77 170.71c1.29,-18.97 31,-17.73 32.85,0.63 6.17,61.13 -14.44,129.81 -39.86,184.82 -26.37,57.06 -64.74,106.23 -113.29,146.02 -2.34,1.91 -5.74,-1.65 -3.66,-3.89 40.99,-44.08 73.83,-95.44 95.48,-151.67 22.56,-58.59 24.31,-114.42 28.46,-175.91z"/>
   <path class="fil2" d="M876.39 650.27c71.86,-6.76 147.77,13.12 212.64,43.11 63.24,29.26 129.71,74.71 164.35,136.8 10.62,19.05 -15.89,39.58 -28.25,20.32 -76.85,-119.8 -215.27,-168.23 -348.96,-188.74 -6.43,-0.99 -6.4,-10.88 0.22,-11.5z"/>
   <path class="fil1" d="M1025.83 609.32c45.61,-0.61 91.47,3.19 134.78,18.44 5.89,2.07 1.85,10.4 -3.87,8.71 -43.25,-12.77 -85.68,-23.45 -130.94,-25.3 -1.05,-0.04 -1.02,-1.83 0.04,-1.84z"/>
   <path class="fil0" d="M976.36 736.26c36.23,22.69 72.87,51.37 96.28,87.75 4.12,6.4 -4.47,12.22 -9.41,6.77 -29.29,-32.28 -56.29,-62.73 -92.53,-87.63 -4.79,-3.29 0.91,-9.85 5.66,-6.88z"/>
   <path class="fil1" d="M937.95 452.42c43.88,-37.7 76.55,-81.73 104.43,-132.17 2.54,-4.6 9.94,-1.49 7.57,3.36 -25.49,52.33 -64.13,96.23 -109.7,132 -2.02,1.58 -4.2,-1.57 -2.3,-3.19z"/>
   <path class="fil2" d="M825.8 226.05c19.78,45.14 20.48,95.54 5.63,142.14 -0.85,2.65 -5.37,1.35 -4.73,-1.37 11.05,-47.06 6.49,-92.13 -10.37,-137.12 -2.31,-6.15 6.86,-9.61 9.47,-3.64z"/>
   <path class="fil1" d="M315.69 352.81c67.65,3.47 131.92,36.37 177.59,85.65 1.97,2.13 -1.64,5.55 -3.75,3.51 -49.4,-47.73 -107.29,-72.85 -175.04,-81.17 -5.25,-0.65 -3.89,-8.25 1.19,-7.99z"/>
   <path class="fil0" d="M869.88 871.54c32.42,31.86 50.66,82.17 39.83,127.27 -1.45,6.07 -9.58,4.65 -9.42,-1.42 1.2,-45.17 -8.18,-84.33 -35.51,-121.07 -2.32,-3.11 2.19,-7.64 5.09,-4.78z"/>
   <path class="fil0" d="M905.2 1068.93c1.22,-2.44 2.91,-4.54 5.04,-6.22 0.93,-0.73 1.91,-1.24 2.92,-1.64 3.17,-2.3 7.25,-3.96 10.58,-4.19 5.91,-0.4 11.21,1.14 15.99,4.74 0.28,0.21 0.56,0.42 0.83,0.63 7.14,5.36 9.94,17 5.93,25.03 -4.06,8.12 -13.15,14.2 -22.56,12.37 -0.34,-0.07 -0.68,-0.13 -1.02,-0.2 -9.52,-1.85 -18.4,-10.44 -18.43,-20.53 -0.02,-0.07 -0.04,-0.12 -0.06,-0.18 -0.78,-3.17 -0.74,-6.82 0.77,-9.82z"/>
   <path class="fil1" d="M1237.49 676.44c-3.22,7.78 -12.74,9.22 -20.27,5.61 -0.04,-0.01 -0.08,-0.03 -0.12,-0.05 -0.11,-0.06 -0.23,-0.11 -0.34,-0.16 -7.69,-3.19 -12.96,-11.19 -9.34,-18.77 1.35,-28.13 50.21,-6.61 30.07,13.37z"/>
   <path class="fil2" d="M800.92 151.49c0.28,0.6 0.55,1.19 0.83,1.79 8.92,19.14 -24.33,31.95 -30.54,11.74 -0.19,-0.62 -0.39,-1.26 -0.58,-1.88 -6.15,-20.01 21.44,-30.63 30.28,-11.65z"/>
   <path class="fil1" d="M216.75 324.27c3.74,-2.82 7.22,-6 12.3,-5.91 3.57,0.06 6.51,0.36 9.66,2.3 2.77,1.7 5.26,4.26 6.33,7.43 0.85,2.51 1.13,5.14 0.86,7.78 -0.46,4.35 -3.2,7.36 -6.21,10.17 -3.72,3.47 -8.43,3.44 -13.1,3.85 -6.06,0.53 -12.78,-2.99 -14.8,-9.01 -2.05,-6.09 -0.25,-12.68 4.95,-16.61z"/>
   <path class="fil1" d="M1261.91 386.39c3.5,-0.25 6.99,-0.5 10.49,-0.75 1.71,-6.19 3.26,-12.44 4.48,-18.8 1.09,-5.69 8.14,-5.95 10.57,-1.15 3.04,6 5.79,12.12 8.41,18.28 5.99,-0.43 11.99,-0.85 17.98,-1.28 4.24,-0.3 8.06,5.09 4.67,8.61 -4.59,4.76 -9.53,9.18 -14.74,13.23 1.86,5.44 3.61,10.93 5.17,16.5 1.7,6.1 -5.27,9.68 -9.46,5.11 -3.64,-3.96 -7.5,-7.64 -11.52,-11.1 -5.29,2.98 -10.77,5.61 -16.47,7.76 -1.24,0.47 -2.43,-0.03 -3.23,-0.89 -3.87,0.32 -7.44,-3.59 -5.69,-7.76 1.88,-4.46 3.56,-8.96 5.15,-13.49 -2.42,-1.41 -4.87,-2.77 -7.39,-4.05 -4.49,-2.28 -3.99,-9.82 1.58,-10.21z"/>
  </g>
  <g id="_1939392586848">
   <path class="fil2" d="M2121.29 1232.08c-5.97,1.97 -12.83,3.61 -17.56,7.95 -5.41,4.98 -7.04,12.64 -9.14,19.35 -2.69,8.56 -5.25,17.16 -7.97,25.7 -8.6,-13.53 -16.14,-27.61 -22.78,-42.25 -1.26,-2.78 -4.85,-3.82 -7.51,-2.54 -15.34,7.38 -31.61,10.32 -48.22,10.03 10.18,-14.15 19.75,-29.26 25.11,-45.61 0.6,-1.84 -0.22,-3.64 -1.58,-4.71 0.18,-0.75 0.2,-1.6 -0.05,-2.57 -3.02,-11.83 -6.81,-23.38 -10.07,-35.1 10.53,6.75 21.08,13.49 31.62,20.21 2.66,1.7 6.78,1.81 9.16,-0.56 11.31,-11.23 22.85,-22.23 35.03,-32.47 0.51,15.69 0.3,31.18 -1.36,46.96 -0.42,4.07 3.41,5.74 6.44,4.79 13.97,7.99 28.08,15.72 42.25,23.32 -7.81,2.47 -15.61,4.93 -23.38,7.5zm44.49 -11.51c-19.57,-10.39 -39.23,-20.65 -59.12,-30.41 1.95,-17.59 3.16,-35.34 2.63,-53.01 -0.17,-5.54 -5.89,-8.39 -10.37,-5.09 -14.82,10.94 -29.04,22.16 -42.41,34.75 -14.15,-9.09 -28.27,-18.19 -42.5,-27.14 -5.43,-3.4 -12.94,1.15 -11.54,7.72 3.99,18.58 8.98,37.26 19.31,53.41 0.53,0.82 1.24,1.44 2.04,1.86 -14.52,14.78 -26.01,33.11 -37.61,50.13 -3.43,5.03 0.07,12.31 6.23,12.57 22.68,1 43.23,-3.74 63.65,-12.7 7.85,16.91 17.24,32.74 28.16,47.92 2.4,3.34 7.79,1.75 8.97,-1.77 4.82,-14.39 8.89,-35.64 19.59,-46.5 11.33,-11.52 35.06,-14.57 50.54,-19.51 4.85,-1.55 8.15,-9.21 2.43,-12.25z"/>
   <path class="fil1" d="M1827.9 960.38c-133.3,21.7 -267.66,-3.87 -378.73,-82.46 -2.57,-1.81 -0.1,-5.69 2.62,-4.11 109.45,63.27 245.65,87.31 369.17,56.77 19.29,-4.77 26.26,26.66 6.94,29.8z"/>
   <path class="fil1" d="M1924.76 905.89c-0.17,2.76 -0.39,5.51 -0.59,8.27 4.74,1 9.47,2.09 14.19,3.29 6.29,1.59 7.5,11.66 1.32,14.31 -5.9,2.54 -11.81,5.09 -17.72,7.63 -0.62,6.33 -1.27,12.65 -1.92,18.98 -0.63,6.12 -9.54,11.48 -14,5.19 -3.11,-4.39 -6.29,-8.8 -9.43,-13.26 -2.48,1.07 -4.96,2.13 -7.44,3.2 -8.05,3.46 -15.01,-6.02 -8.82,-12.5 1.97,-2.06 3.85,-4.19 5.74,-6.31 -2.34,-3.69 -4.57,-7.43 -6.65,-11.24 -0.06,0 -0.13,-0.01 -0.19,-0.02 -10.05,-0.78 -9.59,-16.48 0.48,-15.69 8.39,0.66 16.72,1.7 25,2.95 2,-3.02 3.96,-6.07 5.79,-9.21 3.83,-6.57 14.69,-3.11 14.23,4.4z"/>
   <path class="fil0" d="M1573.62 1216.27c-5.67,-37.65 30.45,-74.4 59.3,-92.17 14.12,-8.68 29.57,-15.13 45.61,-19.22 13.82,30.35 13.24,66.71 -3.48,96.37 -11.11,19.72 -30.15,37.19 -52.7,42.24 -21.83,4.88 -44.99,-2.48 -48.73,-27.22zm87.14 33.92c45.9,-36.32 56.68,-98.62 35.79,-148.85 12.73,-1.71 25.66,-1.88 38.47,-0.27 80.09,10.11 123.28,82.67 132.74,156.36 2.2,17.19 25.33,13.24 28.09,-1.48 15.48,-82.35 -49.99,-167.6 -127.39,-190.07 -30.62,-8.88 -63.87,-9 -95.37,-1.48 -4.73,-5.18 -9.94,-10.02 -15.65,-14.42 -76.94,-59.27 -186.82,-19.66 -217.51,69.68 -1.47,4.27 4.54,6.06 6.45,2.25 38.15,-76.56 142.44,-114.11 207.13,-51.77 -43.14,15.09 -80.9,44.97 -100.81,86.61 -14.75,30.85 -18.89,72.94 8.37,98.33 28.06,26.14 72.07,16.95 99.68,-4.9z"/>
   <path class="fil0" d="M1868.07 1376.07c3.52,-2.41 7.04,-4.83 10.57,-7.25 7.32,7.05 14.72,14.03 22.38,20.67 5.59,4.82 14.8,-1.73 13.2,-8.52 -2.52,-10.57 -4.02,-21.81 -4.87,-33.23 5.5,-3.77 10.99,-7.54 16.47,-11.3 7.53,-5.17 1.74,-15.13 -5.3,-16.5 -3.93,-0.75 -7.98,-1.47 -12.06,-2.15 0.03,-8.91 0.27,-17.71 0.59,-26.14 0.54,-13.92 -18.49,-17.87 -23.7,-4.94 -3.76,9.37 -7.67,18.69 -11.56,28.01 -2.11,0.02 -4.22,0.07 -6.32,0.2 -6.34,-3.4 -13.27,-3.82 -20.87,-1.77 -7.17,1.92 -13.42,12.02 -6.62,18.34 6.41,5.96 12.7,12.07 18.97,18.21 -2.22,5.16 -4.41,10.34 -6.66,15.5 -4.3,9.85 8.49,15.88 15.77,10.88z"/>
  </g>
 </g>
</svg>
