<?xml version="1.0" encoding="UTF-8"?>
<!DOCTYPE svg PUBLIC "-//W3C//DTD SVG 1.1//EN" "http://www.w3.org/Graphics/SVG/1.1/DTD/svg11.dtd">
<!-- Creator: CorelDRAW 2019 (64-Bit Versión de evaluación) -->
<svg xmlns="http://www.w3.org/2000/svg" xml:space="preserve" width="8.1927cm" height="5.97574cm" version="1.1" style="shape-rendering:geometricPrecision; text-rendering:geometricPrecision; image-rendering:optimizeQuality; fill-rule:evenodd; clip-rule:evenodd"
viewBox="0 0 1329.16 969.49"
 xmlns:xlink="http://www.w3.org/1999/xlink">
 <defs>
  <style type="text/css">
   <![CDATA[
    .str0 {stroke:#2F3031;stroke-width:0.08;stroke-linecap:round;stroke-linejoin:round;stroke-miterlimit:4}
    .fil3 {fill:none;fill-rule:nonzero}
    .fil0 {fill:#F3E3A3;fill-rule:nonzero}
    .fil1 {fill:#E1C87B;fill-rule:nonzero}
    .fil2 {fill:#C4963D;fill-rule:nonzero}
   ]]>
  </style>
 </defs>
 <g id="Capa_x0020_1">
  <metadata id="CorelCorpID_0Corel-Layer"/>
  <path class="fil0" d="M339.2 583.96c0.2,3.75 0.06,7.97 1.82,11.38 2.02,3.91 6.18,6.05 9.72,8.33 4.51,2.9 9.07,5.73 13.57,8.65 -9.16,2.83 -18.48,4.96 -27.96,6.49 -1.8,0.29 -2.97,2.2 -2.65,3.94 1.84,10.01 0.98,19.87 -1.81,29.4 -6.56,-8.1 -13.77,-16 -22.35,-21.67 -0.98,-0.65 -2.14,-0.45 -2.97,0.17 -0.4,-0.22 -0.89,-0.37 -1.49,-0.38 -7.31,-0.12 -14.56,0.25 -21.84,0.28 5.56,-5.01 11.1,-10.04 16.64,-15.06 1.4,-1.27 2.11,-3.62 1.12,-5.37 -4.7,-8.3 -9.23,-16.68 -13.21,-25.33 9.13,2.18 18.03,4.74 26.88,8.18 2.28,0.89 3.85,-1.06 3.78,-2.96 6.81,-6.8 13.49,-13.72 20.1,-20.7 0.19,4.89 0.39,9.78 0.64,14.67zm0.37 -27.49c-9.08,9.66 -18.09,19.38 -26.86,29.32 -9.85,-3.89 -19.89,-7.39 -30.17,-9.86 -3.22,-0.78 -5.77,2.08 -4.57,5.18 3.97,10.27 8.21,20.25 13.37,29.94 -7.47,6.73 -14.95,13.45 -22.35,20.25 -2.82,2.59 -1.38,7.65 2.63,7.87 11.35,0.63 22.91,0.69 33.85,-2.73 0.56,-0.17 1.03,-0.49 1.4,-0.88 6.24,10.71 15,20.22 22.99,29.59 2.37,2.77 7.12,1.9 8.24,-1.61 4.15,-12.93 4.65,-25.53 2.7,-38.72 10.99,-1.87 21.6,-4.79 32.08,-8.7 2.3,-0.86 2.24,-4.22 0.39,-5.46 -7.54,-5.05 -19.16,-10.74 -23.75,-18.62 -4.86,-8.35 -2.88,-22.52 -3.29,-32.23 -0.13,-3.04 -4.04,-6.15 -6.69,-3.33z"/>
  <path class="fil1" d="M457.23 681.95c0.44,0.73 0.87,1.46 1.24,2.2 -0.27,0.28 -0.48,0.61 -0.66,0.95 -0.39,-1.28 -0.74,-2.57 -1.14,-3.85 0.18,0.24 0.37,0.48 0.56,0.7zm-8.36 3.6c-1.61,-0.05 -3.23,-0.15 -4.85,-0.24 1.28,-1.02 2.54,-2.08 3.83,-3.09 0.35,1.11 0.68,2.22 1.02,3.33zm34.95 -38.71c-6.2,3.91 -12.27,8.01 -18.27,12.18 -7.32,-4.38 -14.7,-8.68 -22.16,-12.84 -3.83,-2.14 -7.98,1.38 -6.36,5.5 2.91,7.4 5.55,14.86 8.08,22.36 -4.77,3.73 -9.49,7.53 -14.13,11.47 -2.74,2.32 -1.07,6.74 2.36,7.06 5.93,0.56 11.91,0.89 17.91,1 2.05,7.03 4.02,14.1 5.78,21.25 1.07,4.31 6.69,4.54 8.36,0.54 3.15,-7.56 6.18,-15.16 9.16,-22.78 7.06,-0.77 14.08,-1.96 20.95,-3.74 0.39,-0.1 0.71,-0.26 0.98,-0.45 0.09,-0 0.18,0 0.27,0 4.1,-0.14 6.59,-5.4 2.71,-7.98 -5.39,-3.59 -10.84,-7.1 -16.31,-10.56 2.18,-5.96 4.32,-11.94 6.4,-17.94 1.09,-3.12 -2.62,-7.05 -5.75,-5.07z"/>
  <g id="_1940249034800">
   <path class="fil2" d="M111.12 252.84c-8.75,-8.27 -18.09,-15.82 -27.66,-23.1 13.68,-1.43 27.71,-3.02 40.84,-6.69 1.09,-0.3 1.53,-1.47 1.28,-2.38 1.55,0.03 3.13,-0.9 3.26,-2.91 0.97,-14.81 4.61,-28.75 10.95,-41.99 6.71,13.09 13.23,26.47 21.62,38.52 0.64,0.93 1.53,0.94 2.26,0.52 0.06,0.87 0.55,1.65 1.65,1.88 12.55,2.61 25.02,4.95 37.37,8.23 -9.66,8.01 -19.32,16.01 -28.98,24.02 -0.93,0.77 -1.26,1.71 -1.2,2.62 -1.33,0.09 -2.57,1.09 -2.08,2.66 4.73,14.92 9.76,29.52 13.2,44.75 -12.18,-5.61 -23.87,-12.02 -35.36,-19 -1.54,-0.93 -3.08,-0.49 -4.06,0.5 -1.06,-0.64 -2.43,-0.73 -3.66,0.29 -10.02,8.32 -19.83,16.88 -29.37,25.77 0.44,-16.68 1.27,-33.43 0.38,-50.07 -0.01,-0.19 -0.07,-0.34 -0.11,-0.5 0.66,-0.89 0.75,-2.09 -0.35,-3.13zm-1.24 64.1c11.32,-10.81 22.89,-21.29 34.93,-31.29 0,-0 0.01,-0.01 0.02,-0.02 13.47,8.53 27.69,15.75 42.31,22.07 2.34,1.01 4.67,-1.53 4.23,-3.77 -3.27,-16.71 -7.73,-33.7 -15.46,-48.98 0.77,0.05 1.59,-0.16 2.36,-0.8 11.34,-9.39 22.69,-18.78 34.03,-28.17 2.01,-1.67 1.31,-5.18 -1.21,-5.92 -14.53,-4.3 -29.68,-7.71 -44.88,-8.12 -0.53,-0.01 -0.99,0.15 -1.37,0.42 -0.02,-0.11 -0.02,-0.21 -0.05,-0.32 -5.75,-15.63 -14.37,-30.26 -22,-45.03 -1.08,-2.08 -4.53,-2.68 -5.79,-0.37 -8.6,15.82 -13.46,32.79 -14.53,50.76 -0.06,0.89 0.21,1.59 0.65,2.12 -15.95,-0.08 -32.24,2.75 -47.95,5.19 -2.62,0.41 -3.03,3.94 -1.03,5.34 11.52,8.11 22.22,17.16 32.79,26.45 0.22,0.2 0.46,0.34 0.71,0.46 -2.81,18.9 -2.87,38.21 -3.27,57.27 -0.06,2.74 3.37,4.76 5.53,2.7z"/>
   <path class="fil1" d="M305.65 263.8c-0.45,-0.72 -0.88,-1.45 -1.25,-2.19 0.26,-0.28 0.46,-0.62 0.64,-0.96 0.4,1.28 0.77,2.56 1.18,3.84 -0.19,-0.23 -0.38,-0.47 -0.57,-0.69zm8.33 -3.67c1.61,0.04 3.24,0.12 4.85,0.2 -1.27,1.03 -2.52,2.1 -3.8,3.12 -0.36,-1.1 -0.69,-2.21 -1.04,-3.32zm-34.64 38.99c6.17,-3.97 12.2,-8.1 18.17,-12.33 7.36,4.32 14.76,8.56 22.26,12.66 3.85,2.1 7.97,-1.44 6.32,-5.56 -2.97,-7.37 -5.67,-14.81 -8.26,-22.29 4.74,-3.77 9.43,-7.61 14.04,-11.58 2.72,-2.35 1.01,-6.75 -2.42,-7.04 -5.94,-0.51 -11.92,-0.79 -17.92,-0.85 -2.11,-7.02 -4.13,-14.07 -5.95,-21.2 -1.1,-4.31 -6.73,-4.49 -8.37,-0.48 -3.09,7.58 -6.06,15.2 -8.97,22.85 -7.06,0.82 -14.06,2.07 -20.92,3.91 -0.39,0.11 -0.7,0.27 -0.98,0.46 -0.09,0 -0.18,0 -0.27,0 -4.1,0.18 -6.54,5.46 -2.65,8 5.42,3.55 10.9,7.01 16.39,10.43 -2.13,5.98 -4.23,11.97 -6.26,17.99 -1.06,3.13 2.68,7.03 5.8,5.02z"/>
   <path class="fil1" d="M185.98 74.63c1.84,-1 3.68,-2 5.53,-3 2.86,2.57 5.65,5.22 8.31,8.04 2.38,2.52 6.02,0.38 5.7,-2.82 -0.4,-4.01 -0.98,-7.98 -1.65,-11.92 3.16,-1.72 6.32,-3.43 9.47,-5.14 2.24,-1.21 2.43,-5.16 -0.42,-5.84 -3.84,-0.92 -7.76,-1.56 -11.69,-1.92 -0.81,-3.34 -1.7,-6.67 -2.7,-9.98 -1.1,-3.62 -5.77,-3.18 -6.41,0.47 -0.56,3.17 -1.32,6.26 -2.23,9.3 -3.62,0.2 -7.23,0.64 -10.8,1.39 -0.78,0.17 -1.21,0.8 -1.34,1.49 -2.05,1.08 -2.59,4.21 -0.37,5.74 2.38,1.65 4.68,3.37 6.94,5.14 -0.77,1.49 -1.56,2.97 -2.42,4.42 -1.54,2.6 1.15,6.24 4.09,4.64z"/>
   <path class="fil2" d="M344.19 102.98c8.28,72 41.44,139.97 94.55,189.56 46.6,43.51 106.55,71.36 169.65,79.83 1.42,0.19 1.64,-1.93 0.26,-2.2 -131.85,-25.34 -232.28,-136.3 -245.26,-269.94 -1.21,-12.43 -20.63,-9.67 -19.21,2.74z"/>
   <path class="fil2" d="M335.38 21.92c0.71,6.16 1.38,12.32 2.05,18.47 -3.5,1.64 -6.99,3.31 -10.45,5.03 -3.25,1.61 -3.86,7.19 0.16,8.42 4.01,1.22 8.05,2.38 12.11,3.43 0.44,4.14 0.88,8.28 1.31,12.42 0.41,3.92 6.3,5.63 8.48,2.12 2.27,-3.68 4.55,-7.36 6.82,-11.04 2.66,0.42 5.32,0.78 8.01,1.02 2.05,0.85 4.15,1.61 6.33,2.27 4.56,1.38 9.48,-3.85 5.86,-8 -3.39,-3.87 -6.72,-7.78 -10.07,-11.68 1.84,-2.97 3.67,-5.94 5.5,-8.91 2.48,-4 -1.19,-9.03 -5.79,-7.23 -3.35,1.31 -6.7,2.67 -10.02,4.05 -3.95,-4.68 -7.91,-9.36 -11.82,-14.08 -3.05,-3.69 -9.01,-0.99 -8.47,3.69z"/>
   <path class="fil0" d="M314.14 378.24c106.96,-34.13 225.79,9.12 285.35,104.71 0.83,1.33 -1.06,2.69 -2,1.41 -63.26,-86.54 -175.04,-121.97 -276.63,-87.41 -12.1,4.12 -18.93,-14.82 -6.71,-18.71z"/>
   <path class="fil0" d="M273.17 403.05c1.1,-0.18 2.19,-0.37 3.29,-0.56 -1.03,0.96 -2.04,1.92 -3.06,2.87 -0.19,-0.13 -0.39,-0.25 -0.59,-0.38 0.13,-0.64 0.23,-1.29 0.37,-1.93zm-4.88 19.18c2.05,-1.68 4.06,-3.38 6.07,-5.1 3.55,2.26 7.11,4.53 10.66,6.81 2.73,1.77 7.63,0.61 7.67,-3.07 0.3,-0.44 0.44,-1.01 0.26,-1.66 -1.34,-4.7 -3.16,-9.29 -5.2,-13.81 2.53,-2.26 5.05,-4.51 7.59,-6.76 3.29,-2.92 2.15,-10.1 -3.32,-9.14 -3.7,0.65 -7.39,1.37 -11.07,2.11 -1.39,-2.71 -2.78,-5.4 -4.11,-8.08 -1.72,-3.48 -6.41,-3.25 -7.44,0.64 -0.9,3.43 -1.71,6.88 -2.56,10.33 -3.09,0.63 -6.18,1.26 -9.27,1.85 -3.51,0.67 -6.28,5.68 -2.55,8.19 2.73,1.84 5.48,3.65 8.25,5.44 -0.58,2.65 -1.19,5.28 -1.73,7.93 -0.72,3.54 3.85,6.69 6.77,4.29z"/>
  </g>
  <g id="_1939439040288">
   <path class="fil1" d="M69.35 916.85c80.04,-16.33 161.33,-1.17 229.25,49.63 1.57,1.17 0.13,3.79 -1.53,2.77 -66.74,-40.63 -149.12,-54.74 -223.15,-32.65 -11.56,3.45 -16.17,-17.39 -4.56,-19.76z"/>
   <path class="fil1" d="M11.69 954.52c0.07,-1.84 0.16,-3.68 0.25,-5.52 -2.87,-0.6 -5.74,-1.26 -8.59,-1.99 -3.81,-0.97 -4.66,-7.66 -0.98,-9.52 3.53,-1.78 7.06,-3.55 10.58,-5.33 0.3,-4.22 0.6,-8.45 0.92,-12.67 0.3,-4.09 5.6,-7.78 8.37,-3.66 1.93,2.88 3.91,5.78 5.86,8.7 1.48,-0.74 2.96,-1.49 4.44,-2.24 4.8,-2.42 9.12,3.81 5.46,8.21 -1.16,1.4 -2.26,2.84 -3.37,4.28 1.45,2.43 2.85,4.89 4.15,7.4 0.04,0 0.08,0 0.12,0.01 6.07,0.38 5.99,10.85 -0.09,10.46 -5.06,-0.32 -10.09,-0.89 -15.1,-1.62 -1.17,2.04 -2.31,4.1 -3.37,6.22 -2.22,4.43 -8.81,2.28 -8.63,-2.73z"/>
   <path class="fil1" d="M216.5 850.56c-8.46,-21.79 -4.06,-53.92 21.19,-57.87 11.63,-1.82 21.39,5.86 23.54,18.64 2.08,12.36 -3.58,23.99 -11.92,31.88 -8.51,8.06 -19.3,12.27 -30.34,13 -0.87,-1.82 -1.71,-3.68 -2.47,-5.64zm-75.26 -92.38c0.32,-14.16 7.95,-31.68 22.78,-31.22 13.48,0.41 19.09,14.69 11.81,26.5 -5.59,9.07 -14.67,13.33 -24.16,15.11 -3.19,0.6 -6.4,0.86 -9.61,0.88 -0.58,-3.74 -0.91,-7.51 -0.82,-11.27zm4.34 26.18c5.24,-0.78 10.4,-2.25 15.36,-4.57 17.77,-8.31 39.26,-36.69 19.28,-55.71 -8.84,-8.42 -22.3,-8.64 -31.91,-1.81 -11.29,8.04 -16.97,22.69 -17.51,37.18 -0.11,2.94 -0.05,5.94 0.1,8.97 -14.43,-2.79 -28.04,-10.96 -38.17,-22.66 -16.84,-19.45 -22.78,-44.43 -27.32,-70.1 -1.65,-9.3 -15.66,-8.21 -15.21,1.61 1.46,32.17 14.34,66.01 36.89,87.04 12.61,11.76 29.08,19.44 45.71,20.55 4.53,24.95 16.19,50.32 31.32,66.75 16.17,17.56 38.48,25.87 60.28,22.87 6.03,6.85 13.02,12.63 20.29,16.83 30.53,17.63 65.7,13.64 96.59,-0.42 1.16,-0.53 0.44,-2.71 -0.76,-2.29 -34.79,12.34 -82.88,14.52 -110.08,-15.27 5.13,-1.21 10.2,-3.04 15.11,-5.58 24.87,-12.82 43.69,-50.09 21.44,-76.03 -17.52,-20.42 -49.07,-9.15 -58.36,15 -6.5,16.89 -3.99,34.36 3.47,49.48 -8.36,-0.55 -16.63,-3.04 -23.93,-7.4 -19.69,-11.76 -32.01,-34.05 -39.94,-56.51 -0.91,-2.59 -1.81,-5.24 -2.63,-7.93z"/>
   <path class="fil1" d="M64.53 612.47c-2.41,1.81 -4.82,3.59 -7.24,5.39 -2.58,-2.57 -5.22,-5.08 -7.94,-7.53 -2.68,-2.42 -6.09,1.25 -5.59,4.37 0.64,3.95 1.27,7.9 1.91,11.84 -3.5,2.62 -7,5.23 -10.47,7.89 -3.1,2.38 -2.21,7.04 1.58,7.68 3.88,0.65 7.77,1.21 11.67,1.62 0.36,2.22 0.72,4.45 1.08,6.67 0.65,4.03 6.48,4.36 7.33,0.28 0.44,-2.13 0.95,-4.21 1.49,-6.29 3.64,0.08 7.28,-0.07 10.91,-0.47 0.1,0.03 0.2,0.07 0.31,0.1 3.99,1.28 6.82,-4.02 4.23,-7.42 -2.83,-3.72 -5.78,-7.27 -8.84,-10.68 1.26,-2.7 2.64,-5.35 4.15,-7.95 1.76,-3.02 -1.6,-7.74 -4.58,-5.5z"/>
  </g>
  <g id="_1939439054944">
   <path class="fil2" d="M1246.17 475.41c0.03,-0.14 3.75,-0.58 6.58,-1.01 -1.03,-0.54 5.64,-4.65 1.81,-1.05 5.89,-5.54 1.94,-2.03 5.53,-6.92 -1.92,-2.34 -4.01,-4.94 -6.36,-7.98 -26.34,-34.07 -55.39,-65.67 -87.06,-94.85 -28.6,-26.35 -60.69,-57.14 -97.65,-71.11 -1.67,-0.63 -3.11,2.05 -1.67,3.11 32.8,24.17 62.74,47.41 90.21,77.77 29.15,32.21 56.26,66.48 81.32,101.96 2.43,0.07 4.86,0.13 7.29,0.08z"/>
   <path class="fil0" d="M1030.93 285.31c-43.59,22.27 -74.92,65.82 -91.74,110.93 -17.68,47.43 -24.45,110.09 -4.24,157.93 5.48,12.97 24.43,7.77 21.21,-6.36 -5.63,-24.71 -12.49,-47.6 -12.82,-73.31 -0.32,-24.93 3.5,-49.78 11.7,-73.33 15.58,-44.78 45.96,-79.16 79.47,-111.53 2.44,-2.36 -0.88,-5.72 -3.58,-4.33z"/>
   <path class="fil1" d="M1325.88 260.42c-33.56,-25.44 -85.17,-32.17 -126.1,-33.07 -44.34,-0.98 -89.47,8.61 -128.74,29.4 -3.98,2.11 -0.93,9.07 3.32,7.32 39.28,-16.24 80.14,-24.81 122.77,-22.57 21.19,1.11 41.92,5.15 62.11,11.64 20.05,6.44 37.68,17.49 57.22,24.76 9.5,3.54 17.4,-11.43 9.42,-17.48z"/>
   <path class="fil2" d="M1254.68 9.68c-99,36.83 -194.73,133.05 -203.86,242.92 -0.33,3.99 5.4,3.99 6.52,0.7 17.48,-51.04 37.43,-97.46 74.23,-137.94 35.29,-38.81 79.72,-67.81 129.58,-84.09 13.84,-4.52 7.08,-26.64 -6.47,-21.6z"/>
   <path class="fil0" d="M1013.1 53.46c-39.33,66.65 -9.72,143.81 21.94,207.01 1.31,2.62 5.95,0.57 4.75,-2.16 -27.3,-61.94 -52.07,-134.28 -10.52,-196.14 6.51,-9.7 -10.09,-19.01 -16.17,-8.72z"/>
   <path class="fil2" d="M1027.61 262.61c-60.87,-72.89 -168.64,-115.04 -262.8,-94.92 -13.33,2.85 -9.94,25.51 3.77,23.93 45.66,-5.28 89.17,-5.58 133.79,7.43 45.15,13.17 85.47,37.44 119.98,69.18 3.75,3.45 8.34,-1.93 5.25,-5.63z"/>
   <path class="fil0" d="M1004.66 269.13c-48.15,-1.47 -95.46,7.39 -139.01,28.36 -22.72,10.94 -44.27,24.45 -63.89,40.3 -16.5,13.32 -38.6,29.93 -47.39,49.61 -3.96,8.85 5.44,19.79 14.58,13.65 17.35,-11.65 30.42,-30.55 46.69,-44.02 17.44,-14.43 36.22,-27.16 56.13,-37.94 41.28,-22.34 86.48,-38.1 133.01,-44.7 3.3,-0.47 3.35,-5.16 -0.12,-5.27z"/>
   <path class="fil1" d="M1133.72 565.39c-66.62,-73.21 -94.37,-161.52 -80.62,-259.71 0.55,-3.92 -4.86,-5.35 -6.04,-1.47 -28.21,93.36 1.72,209.19 71.74,277.17 10.22,9.92 24.29,-5.7 14.92,-15.99z"/>
   <path class="fil2" d="M1261.71 335.63c-37.72,-27.67 -82.08,-41.5 -128.94,-37.98 -1.91,0.15 -1.85,2.94 0.07,2.97 44.02,0.67 85.22,17.08 116.9,47.85 8.28,8.04 20.92,-6.28 11.98,-12.84z"/>
   <path class="fil0" d="M1232.19 115.08c-53.04,14.19 -102.27,53.46 -130.39,100.22 -2.21,3.67 3.62,8.04 6.2,4.45 33.16,-46.11 74.37,-74.11 128.22,-91.22 8.62,-2.74 4.7,-15.78 -4.03,-13.45z"/>
   <path class="fil0" d="M1088.01 2.25c-36.23,42.9 -49.46,107.23 -43.14,161.77 0.19,1.62 2.53,1.62 2.56,-0.06 0.49,-27.56 4.75,-55.18 13.54,-81.34 9.02,-26.89 23.47,-48.51 38.36,-72.25 4.22,-6.72 -6.17,-14.21 -11.31,-8.12z"/>
   <path class="fil1" d="M977.81 170.09c-26.04,-44.61 -61.23,-87.36 -114.89,-97.09 -10.49,-1.91 -14.45,14.19 -3.91,16.14 49.9,9.24 84.75,45.68 116.02,83.25 1.36,1.64 3.79,-0.59 2.79,-2.3z"/>
   <path class="fil0" d="M941.5 242.01c-44.77,-12.72 -92.2,-15.82 -137.85,-5.18 -8.85,2.06 -4.63,14.88 3.99,13.32 44.32,-7.99 87.78,-9.99 132.37,-1.98 4.01,0.72 5.45,-5.04 1.49,-6.17z"/>
   <path class="fil2" d="M958.21 312.83c-46.02,29.05 -85.11,74.08 -100.4,127.06 -3.3,11.45 13.65,14.89 17.58,4.27 18.41,-49.73 44.09,-92.76 85.83,-126.52 2.75,-2.23 0.17,-6.82 -3.01,-4.81z"/>
   <path class="fil2" d="M1020.06 340.32c-17.39,23.3 -23.55,49.76 -24.97,78.42 -1.68,33.93 -3.22,73.32 12.31,104.34 4.65,9.28 21.11,1.99 16.82,-7.62 -12.8,-28.7 -15.19,-60.18 -16.29,-91.31 -0.99,-27.9 1.6,-56.35 16.91,-80.4 1.79,-2.81 -2.76,-6.16 -4.79,-3.44z"/>
   <path class="fil0" d="M1129.97 440.81c-24.4,-23.71 -41.56,-50.31 -41.64,-85.5 -0.01,-4.34 -6.31,-4.02 -6.62,0.14 -2.62,35.86 10.92,73.64 42.87,92.86 4.62,2.78 9.11,-3.89 5.39,-7.51z"/>
   <path class="fil1" d="M1106.36 56.4c-17.71,21.04 -27.09,46.45 -33.04,72.98 -0.32,1.44 1.91,1.98 2.23,0.54 5.8,-25.93 19.58,-48.15 35.94,-68.73 2.78,-3.49 -2.2,-8.28 -5.14,-4.79z"/>
   <path class="fil0" d="M951.53 175.18c-25.43,-22.37 -56.48,-35.63 -90.39,-37.59 -4.04,-0.24 -3.76,5.85 0.14,6.21 32.04,2.97 61.85,14.64 86.84,35.04 2.47,2.01 5.85,-1.51 3.41,-3.66z"/>
   <path class="fil3 str0" d="M832.69 139.85c0.08,-0.03 0.05,-0.15 -0.04,-0.13"/>
   <path class="fil1" d="M860.52 279.63c-24.34,6.45 -49.08,16.61 -68.32,33.2 -3.64,3.13 1.44,9.25 5.37,6.51 20.65,-14.45 40.03,-27.5 64.07,-35.96 2.37,-0.83 1.32,-4.4 -1.12,-3.75z"/>
   <path class="fil0" d="M856.02 383c-11.38,13.75 -20.7,29.29 -26.23,46.32 -1.5,4.59 5.65,6.19 7.22,1.75 5.61,-15.97 12.77,-30.82 22.97,-44.39 2.04,-2.72 -1.7,-6.41 -3.95,-3.68z"/>
   <path class="fil2" d="M1274.42 167.64c-24.65,-3.45 -48.55,1.48 -71.11,11.57 -2.27,1.01 -1.17,4.77 1.12,3.75 21.92,-9.81 44.52,-11.07 67.98,-7.06 5.42,0.93 7.38,-7.52 2.01,-8.27z"/>
   <path class="fil2" d="M1325.95 172.16c-0.62,-1.27 -1.24,-2.54 -1.86,-3.81 -2.87,-5.86 -11.65,-5.81 -15.67,-1.5 -4.38,4.7 -3.02,12.38 2.55,15.51 1.19,0.67 2.37,1.33 3.55,1.99 3.22,1.8 7.98,1.15 10.42,-1.71 2.68,-3.14 2.77,-6.89 1.01,-10.49z"/>
   <path class="fil1" d="M1128.39 22.85c-9.82,2.94 -5.26,18.21 4.57,15.26 9.82,-2.94 5.27,-18.21 -4.57,-15.26z"/>
   <path class="fil2" d="M961.37 60.09c-1.59,-3.5 -7.73,-0.76 -6.22,2.82 6.27,14.84 11.44,29.93 14.47,45.79 0.32,1.66 2.99,1.19 2.91,-0.46 -0.78,-16.86 -4.16,-32.72 -11.16,-48.15z"/>
   <path class="fil2" d="M951.72 28.41c-0.02,-0.02 -0.03,-0.02 -0.05,-0.04 -1.64,-2.89 -4.93,-5.25 -8.29,-4.89 -0.23,0.03 -0.47,0.05 -0.7,0.08 -3.88,0.42 -7.78,2.78 -8.6,6.91 -0.76,3.84 0.8,8.3 4.5,10.1 0.2,0.1 0.41,0.2 0.61,0.3 3.32,1.62 8.36,1.46 10.94,-1.62 3.74,-2.18 5.39,-7.68 1.57,-10.84z"/>
   <path class="fil0" d="M751.31 239.95c-4.18,-0.62 -7.11,0.21 -10.23,3.07 -4.98,4.56 -2.06,14.32 4.61,15.4 4.19,0.67 7.09,-0.25 10.23,-3.06 5.02,-4.48 2.04,-14.43 -4.62,-15.41z"/>
   <path class="fil2" d="M854.19 483.33c-2.09,-1.12 -4.77,-1.4 -7.04,-0.72 -2.83,0.85 -5.96,3.56 -6.33,6.68 0.51,-0.97 0.64,-1.15 0.37,-0.54 -0.13,0.31 -0.26,0.63 -0.39,0.94 -0.92,2.22 -1.4,4.3 -0.68,6.69 0.62,2.06 2.27,4.25 4.24,5.2 4.64,2.25 9.13,0.51 11.89,-3.56 0.19,-0.28 0.38,-0.56 0.57,-0.85 0.36,-0.57 0.28,-0.36 -0.25,0.6 2.32,-1.97 3.06,-6.2 2.1,-8.97 -0.81,-2.32 -2.27,-4.3 -4.47,-5.49z"/>
   <path class="fil0" d="M1138.16 460.72c-0.41,0.06 -0.82,0.06 -1.23,-0.02 -3.74,-0.37 -7.62,2.62 -9.31,5.7 -0.07,0.13 -0.15,0.26 -0.22,0.4 -2.68,4.91 -0.73,11.45 4.22,14.08 0.13,0.07 0.27,0.14 0.4,0.21 3.1,1.65 7.99,2.01 10.91,-0.36 0.3,-0.29 0.64,-0.52 1.02,-0.69 3.84,-2.14 5.91,-7.72 4.47,-11.87 -1.47,-4.2 -5.56,-7.81 -10.26,-7.46z"/>
  </g>
 </g>
</svg>
