<?xml version="1.0" encoding="UTF-8"?>
<!DOCTYPE svg PUBLIC "-//W3C//DTD SVG 1.1//EN" "http://www.w3.org/Graphics/SVG/1.1/DTD/svg11.dtd">
<!-- Creator: CorelDRAW 2019 (64-Bit Versión de evaluación) -->
<svg xmlns="http://www.w3.org/2000/svg" xml:space="preserve" width="1.45461cm" height="2.02699cm" version="1.1" style="shape-rendering:geometricPrecision; text-rendering:geometricPrecision; image-rendering:optimizeQuality; fill-rule:evenodd; clip-rule:evenodd"
viewBox="0 0 88.54 123.38"
 xmlns:xlink="http://www.w3.org/1999/xlink">
 <defs>
  <style type="text/css">
   <![CDATA[
    .str0 {stroke:#FFF688;stroke-width:1.22;stroke-miterlimit:22.9256}
    .str1 {stroke:#FFCC29;stroke-width:1.22;stroke-miterlimit:22.9256}
    .fil1 {fill:#FFF688}
    .fil2 {fill:#FFCC29}
    .fil0 {fill:#2A5491}
   ]]>
  </style>
 </defs>
 <g id="Capa_x0020_1">
  <metadata id="CorelCorpID_0Corel-Layer"/>
  <path class="fil0" d="M25.92 25.87c0,0 -16.84,0.19 -16.84,0.19l-0 97.13 16.91 0 -0.05 -44.88 18.75 21.14c0.54,0.69 1.06,1.1 1.6,1.79 2.79,3.59 9.52,10.54 12.55,14.33 4.57,5.73 8.45,7.63 15.93,7.62 3.74,-0 10.25,0.19 13.77,0.19 -0.82,-1.17 -2.03,-2.22 -2.94,-3.36l-19.41 -21.73c-0.9,-1.05 -1.79,-2.08 -2.69,-3.13l-19.38 -21.73c2.83,-3.64 8.63,-9.51 11.5,-13.03l20.8 -23.5c0.53,-0.66 0.76,-0.86 1.38,-1.52 1.44,-1.54 7.08,-8.39 8.32,-9.11 -0.87,0 -2.34,0 -3.61,0.01 -10.04,0.03 -17.16,-1.42 -23.63,5.19l-7.35 8.39c-0.62,0.69 -0.94,0.93 -1.5,1.64 -0.93,1.2 -2.05,2.22 -3.11,3.41l-6.02 6.81c-1.02,1.26 -14.1,16.24 -14.97,16.7l-0.02 -42.56z"/>
  <g id="_2359934017856">
   <path class="fil1 str0" d="M1.94 16.78l1.46 -0.28c0.31,11.11 5.89,3.7 8.37,-1.25l1.28 -4.47c-1.8,-1.13 -2.91,-3.11 -2.71,-5.23 0.28,-3.06 3.18,-5.26 6.48,-4.91 3.3,0.35 5.71,3.41 5.45,6.18 -0.26,2.76 -0.85,3.27 -3.54,5.16l0 0 1.37 5.2c2.5,7.8 11.48,7.04 14.66,2.05 0.96,-1.5 1.58,-2.62 2.07,-3.88 -2.55,-2.63 -3.08,-7.13 0.34,-9.29 2.8,-1.78 6.94,-0.8 9.23,2.18 2.3,2.98 1.88,6.84 -0.92,8.61 -0.89,0.56 -1.92,0.85 -2.98,0.88 -0.53,2.96 -1.15,6.44 -0.73,7.37 1.01,2.2 3.6,10.06 6.14,5.16l0.1 2.08 -6.02 11.45c-1.5,-13.14 -31.7,-20.43 -41.25,-8.34l1.2 -18.67z"/>
   <path class="fil2 str1" d="M3.61 19.83l0 0c-0.5,10.01 3.45,17.83 8.03,5.36 -1.64,-1.55 -2.56,-3.81 -2.2,-5.93 0.51,-3.06 3.47,-4.68 6.62,-3.61 3.14,1.07 5.23,4.73 4.77,7.49 -0.46,2.77 -1.91,4.28 -4.32,4.22l0.5 0.28 -0.47 4.91c1.91,7.09 9.71,6.99 11.93,3.76 1.38,-2.01 1.58,-2.58 3.26,-5.09 0.05,0.01 -1.82,-1.82 -1.4,-4.34 0.51,-3.06 3.62,-5.55 6.94,-5.54 3.32,0 5.6,2.49 5.09,5.56 -0.43,2.59 -2.72,4.76 -5.42,5.37 -0.01,1.65 -0.9,4.34 -0.35,6.04 0.8,2.47 3.47,3.22 6.29,-1.24l5.34 -7.63c-0.16,-0.85 -0.15,-1.94 0.05,-3.17 0.51,-3.06 2.07,-5.8 3.49,-6.12 1.42,-0.31 2.15,1.92 1.64,4.98 -0.51,3.06 -2.07,5.8 -3.49,6.12 -0.45,0.1 -0.83,-0.06 -1.13,-0.42l-8.98 17.07c-12.94,6.91 -33.54,-0.21 -39.21,-12.74l1.33 -18.4c-0.32,-1.32 -0.38,-3.03 -0.09,-4.74 0.51,-3.06 1.93,-4.94 3.16,-4.18 1.24,0.76 1.82,3.9 1.32,6.92 -0.5,3.02 -1.51,5.64 -2.72,5.05z"/>
  </g>
 </g>
</svg>
