<?xml version="1.0" encoding="UTF-8"?>
<!DOCTYPE svg PUBLIC "-//W3C//DTD SVG 1.1//EN" "http://www.w3.org/Graphics/SVG/1.1/DTD/svg11.dtd">
<!-- Creator: CorelDRAW 2019 (64-Bit Versión de evaluación) -->
<svg xmlns="http://www.w3.org/2000/svg" xml:space="preserve" width="13.1458cm" height="4.39587cm" version="1.1" style="shape-rendering:geometricPrecision; text-rendering:geometricPrecision; image-rendering:optimizeQuality; fill-rule:evenodd; clip-rule:evenodd"
viewBox="0 0 13408.57 4483.74"
 xmlns:xlink="http://www.w3.org/1999/xlink">
 <defs>
  <style type="text/css">
   <![CDATA[
    .str5 {stroke:#003A7D;stroke-width:153;stroke-miterlimit:22.9256}
    .str0 {stroke:#FFF688;stroke-width:20.4;stroke-miterlimit:22.9256}
    .str1 {stroke:#FFCC29;stroke-width:20.4;stroke-miterlimit:22.9256}
    .str4 {stroke:#FEFEFE;stroke-width:7.77;stroke-miterlimit:22.9256}
    .str3 {stroke:#FEFEFE;stroke-width:7.77;stroke-miterlimit:22.9256}
    .str2 {stroke:#003A7D;stroke-width:7.77;stroke-miterlimit:22.9256}
    .fil3 {fill:#FF0009}
    .fil1 {fill:#FFC300}
    .fil0 {fill:#FFF688}
    .fil2 {fill:#003A7D;fill-rule:nonzero}
    .fil4 {fill:#FEFEFE;fill-rule:nonzero}
   ]]>
  </style>
 </defs>
 <g id="Capa_x0020_1">
  <metadata id="CorelCorpID_0Corel-Layer"/>
  <path class="fil0 str0" d="M123.01 1383.42l123.98 -23.76c26.11,943.44 500.45,314.33 710.31,-106.03l108.58 -379.88c-152.51,-96.13 -246.86,-264.03 -230.19,-443.97 24.05,-259.81 270.36,-446.29 550.15,-416.49 279.79,29.78 484.77,289.81 463.05,524.36 -21.72,234.54 -71.95,278.01 -300.92,437.73l0 0 116.49 441.08c212.42,662.49 974.7,597.36 1244.83,174.08 81.38,-127.53 134.22,-222.39 175.74,-329.19 -216.12,-223.32 -261.16,-605.31 28.48,-788.74 238.06,-150.75 588.99,-67.81 783.84,185.26 194.85,253.08 159.82,580.45 -78.22,731.2 -75.71,47.94 -162.85,72.22 -252.73,74.93 -44.96,251.68 -97.78,546.54 -61.61,625.69 85.48,187.08 305.73,854.17 520.87,438.12l8.74 176.34 -511.35 972.46c-127.24,-1115.78 -2690.84,-1734.65 -3501.94,-708.05l101.9 -1585.14z"/>
  <path class="fil1 str1" d="M264.61 1641.64l0 0c-42.3,849.95 292.49,1513.74 681.7,455.19 -139.29,-131.3 -217.02,-323.31 -186.99,-503.51 43.35,-260.2 294.9,-397.25 561.83,-306.1 266.94,91.15 443.97,401.27 404.84,636.16 -39.14,234.89 -162.12,363.12 -366.44,358.01l42.82 23.88 -39.59 417.19c162.09,602.15 824.13,593.29 1012.8,319.41 117.41,-170.44 134.32,-218.71 276.83,-431.83 3.87,0.69 -154.16,-154.25 -118.48,-368.35 43.35,-260.21 307.16,-470.87 589.23,-470.53 282.08,0.33 475.59,211.53 432.24,471.72 -36.63,219.82 -230.58,404.26 -459.97,456.03 -0.66,139.97 -76.34,368.17 -29.67,512.65 67.72,209.66 294.55,273.26 533.94,-105.09l453.42 -647.6c-13.36,-72.09 -12.92,-164.75 4.41,-268.75 43.35,-260.2 175.9,-492.73 296.04,-519.38 120.14,-26.65 182.39,162.68 139.03,422.88 -43.35,260.19 -175.89,492.73 -296.04,519.38 -38.22,8.48 -70.57,-4.93 -95.53,-35.5l-762.15 1449.4c-1098.47,586.39 -2847.22,-17.59 -3328.51,-1081.61l112.66 -1561.86c-27.15,-111.81 -31.98,-257.58 -7.82,-402.52 43.35,-260.2 163.63,-419.11 268.63,-354.96 105.01,64.17 154.4,330.72 111.65,587.31 -42.76,256.6 -128,478.85 -230.86,428.39z"/>
  <polygon class="fil2 str2" points="11775.73,1338.14 11971.3,1383.51 11687.68,1888.84 11541.6,1854.94 "/>
  <path class="fil3" d="M5300.65 3613.94l4188.35 0c764.15,360.32 1504.73,385.6 1771.58,0l1600.5 0 -730.8 869.81 -6829.63 0 0 -869.81z"/>
  <path class="fil4 str3" d="M6166.94 4203.49l25.34 22.36c-57.32,51.95 -124.56,78 -202,78 -83.23,0 -154.01,-29.3 -212.61,-87.76 -58.47,-58.47 -87.63,-129.24 -87.63,-212.47 0,-82.67 29.16,-153.45 87.63,-212.19 58.6,-58.74 129.38,-88.05 212.61,-88.05 77.44,0 144.68,26.05 202,78.28l-25.34 22.5c-50.25,-44.58 -109.14,-66.81 -176.66,-66.81 -73.6,0 -136.31,25.9 -188.55,77.99 -52.09,51.96 -78.13,114.67 -78.13,188.27 0,73.75 26.04,136.74 78.13,188.69 52.23,51.95 114.94,77.86 188.55,77.86 67.52,0 126.41,-22.23 176.66,-66.67z"/>
  <path class="fil4 str4" d="M6563.5 3904.39c55.76,0 103.32,19.68 142.4,58.88 39.21,39.35 58.74,86.91 58.74,142.69 0,55.34 -19.53,102.62 -58.74,142.12 -39.08,39.35 -86.64,59.03 -142.4,59.03 -55.35,0 -102.63,-19.68 -142.13,-59.03 -39.35,-39.49 -59.03,-86.77 -59.03,-142.12 0,-55.77 19.68,-103.34 59.03,-142.69 39.49,-39.21 86.77,-58.88 142.13,-58.88zm0 34.96c-45.87,0 -85.08,16.28 -117.64,48.84 -32.42,32.7 -48.69,71.91 -48.69,117.78 0,46 16.28,85.07 48.69,117.34 32.56,32.42 71.77,48.56 117.64,48.56 45.86,0 85.07,-16.15 117.48,-48.56 32.56,-32.27 48.84,-71.34 48.84,-117.34 0,-45.87 -16.28,-85.08 -48.84,-117.78 -32.42,-32.56 -71.62,-48.84 -117.48,-48.84zm424.44 -229.03l0 586.45 -33.26 0 0 -586.45 33.26 0zm239.01 0l0 586.45 -33.26 0 0 -586.45 33.26 0zm224.01 343.41l316.08 0c-7.78,-25.19 -20.95,-47 -39.49,-65.54 -32.56,-32.56 -71.91,-48.84 -117.77,-48.84 -45.87,0 -85.08,16.28 -117.78,48.84 -19.25,19.68 -32.98,41.48 -41.04,65.54zm-6.23 33.69c-0.85,5.8 -1.27,11.88 -1.27,18.54 0,46 16.28,85.07 48.84,117.34 32.42,32.42 71.62,48.56 117.49,48.56 45.86,0 85.21,-16.28 117.77,-48.98 5.52,-5.52 10.76,-11.32 15.86,-17.41l35.24 12.45c-4.24,6.94 -12.88,16.85 -26.18,29.87 -39.21,39.64 -86.77,59.31 -142.69,59.31 -55.21,0 -102.63,-19.68 -141.98,-59.03 -39.35,-39.49 -59.17,-86.77 -59.17,-142.12 0,-55.77 19.82,-103.34 59.17,-142.69 39.35,-39.21 86.77,-58.88 141.98,-58.88 55.92,0 103.48,19.68 142.69,59.03 34.54,34.82 51.81,76.15 51.81,124l-359.55 0zm874.87 -15.86c-6.36,-31.43 -21.51,-59.3 -45.3,-83.37 -32.56,-32.56 -71.91,-48.84 -117.77,-48.84 -45.87,0 -85.08,16.28 -117.49,48.84 -32.56,32.7 -48.84,71.91 -48.84,117.78 0,46 16.28,85.07 48.84,117.63 32.42,32.42 71.62,48.69 117.49,48.69 45.86,0 85.21,-16.28 117.77,-48.98 23.5,-23.49 38.65,-50.96 45.3,-82.52l0 -69.23zm-0.43 153.88c-6.36,7.78 -13.02,15.15 -19.95,22.36 -39.21,39.64 -86.77,59.31 -142.69,59.31 -55.21,0 -102.63,-19.68 -141.98,-59.03 -39.35,-39.49 -59.17,-86.77 -59.17,-142.12 0,-55.77 19.82,-103.34 59.17,-142.4 39.35,-39.08 86.77,-58.75 141.98,-58.75 55.92,0 103.48,19.53 142.69,58.61 7.5,7.64 14.43,15.85 20.81,24.35l0 -50.96 33.12 0 0 279.56c0,54.08 -19.25,100.37 -57.61,138.44 -39.35,39.49 -86.77,59.31 -142.26,59.31 -55.63,0 -103.19,-19.82 -142.69,-59.31 -8.07,-7.93 -15.15,-16.28 -21.52,-24.92l34.82 -12.74c3.54,4.4 7.65,8.64 12.04,12.74 32.27,32.7 71.48,48.98 117.35,48.98 45.57,0 84.65,-16.28 117.34,-48.98 29.59,-29.58 45.73,-64.4 48.55,-104.46zm242.27 -171.71l316.08 0c-7.78,-25.19 -20.95,-47 -39.49,-65.54 -32.56,-32.56 -71.91,-48.84 -117.77,-48.84 -45.87,0 -85.08,16.28 -117.78,48.84 -19.25,19.68 -32.98,41.48 -41.04,65.54zm-6.23 33.69c-0.85,5.8 -1.27,11.88 -1.27,18.54 0,46 16.28,85.07 48.84,117.34 32.42,32.42 71.62,48.56 117.49,48.56 45.86,0 85.21,-16.28 117.77,-48.98 5.52,-5.52 10.76,-11.32 15.86,-17.41l35.24 12.45c-4.24,6.94 -12.88,16.85 -26.18,29.87 -39.21,39.64 -86.77,59.31 -142.69,59.31 -55.21,0 -102.63,-19.68 -141.98,-59.03 -39.35,-39.49 -59.17,-86.77 -59.17,-142.12 0,-55.77 19.82,-103.34 59.17,-142.69 39.35,-39.21 86.77,-58.88 141.98,-58.88 55.92,0 103.48,19.68 142.69,59.03 34.54,34.82 51.81,76.15 51.81,124l-359.55 0z"/>
  <path class="fil2 str5" d="M6656.52 939.46c32.78,-37.02 67.68,-66.62 104.68,-88.82 37.01,-22.21 81.95,-33.3 134.81,-33.3l130.05 0 -927.81 1047.29c-11.64,12.69 -21.68,22.74 -30.14,30.14 -8.46,7.39 -15.33,13.21 -20.61,17.44 -6.34,4.23 -11.63,6.87 -15.86,7.93 4.23,2.12 9.52,5.29 15.86,9.52 5.28,4.23 12.16,10.05 20.61,16.92 8.46,6.87 18.5,16.39 30.14,29.08l994.43 1116.02 -141.16 0c-52.87,0 -97.81,-11.1 -135.33,-32.77 -37.55,-21.67 -72.44,-50.75 -104.16,-87.77l-881.82 -1003.41c-9.52,-11.63 -17.97,-20.08 -25.9,-25.9 -7.94,-5.82 -14.81,-10.58 -20.09,-13.75 -6.34,-4.23 -12.16,-6.87 -17.45,-7.94 5.29,-1.05 11.11,-3.69 17.45,-7.93 5.28,-3.17 12.16,-7.93 20.09,-14.8 7.93,-6.87 16.91,-16.39 27.48,-28.02l824.73 -929.93zm-1037.25 2152.22l-199.85 0 0 -2274.34 199.85 0 0 2274.34zm1968.24 -1665.32l0 1665.32 -203.02 0 0 -1665.32 203.02 0zm-263.28 -471.05c0,-22.19 4.22,-43.34 12.69,-63.43 8.46,-20.09 20.08,-37.54 34.89,-52.34 14.8,-14.81 32.24,-26.44 52.34,-34.89 20.08,-8.47 41.24,-12.69 63.43,-12.69 22.22,0 43.36,4.22 63.44,12.69 20.09,8.46 37.54,20.08 52.34,34.89 14.81,14.8 26.44,32.24 34.89,52.34 8.47,20.09 12.69,41.24 12.69,63.43 0,22.22 -4.22,43.36 -12.69,63.44 -8.46,20.09 -20.08,37.55 -34.89,52.35 -14.8,14.8 -32.24,26.44 -52.34,34.89 -20.08,8.46 -41.23,12.69 -63.44,12.69 -22.19,0 -43.35,-4.23 -63.43,-12.69 -20.09,-8.46 -37.54,-20.09 -52.34,-34.89 -14.81,-14.8 -26.44,-32.25 -34.89,-52.35 -8.47,-20.08 -12.69,-41.23 -12.69,-63.44zm945.27 469.47c4.75,10.57 9.52,23.26 13.21,37.54 3.7,14.27 5.82,37.54 5.82,70.31l0 144.33c39.65,-47.58 82.47,-88.82 128.99,-123.7 46.53,-34.89 94.63,-63.44 144.33,-86.18 49.7,-22.74 100.45,-40.18 152.26,-51.81 52.34,-11.63 103.09,-17.44 152.78,-17.44 90.93,0 172.87,17.44 245.31,51.8 72.42,34.37 134.28,83.54 185.04,147.51 50.74,63.96 89.87,141.68 117.36,232.61 27.49,90.93 41.24,192.44 41.24,304.52l0 957.42 -203.01 0 0 -957.42c0,-170.24 -33.31,-301.88 -99.4,-394.39 -66.09,-92.51 -168.11,-139.03 -305.57,-139.03 -77.18,0 -149.61,10.04 -216.23,30.13 -66.62,20.09 -124.77,47.58 -174.46,82.48 -50.22,34.89 -89.87,75.6 -119.48,121.58 -29.6,46 -46,94.63 -49.16,145.39l0 1111.27 -203.02 0 0 -1666.9 183.99 0zm2997.57 151.72c-12.69,30.67 -41.77,54.46 -87.23,71.9 -45.47,16.92 -115.25,25.38 -209.35,25.38 15.86,22.21 30.13,48.11 42.82,77.71 12.69,29.61 23.27,59.21 31.72,89.35 8.46,30.13 14.81,59.74 19.03,88.81 4.23,29.08 6.34,54.46 6.34,75.6 0,83.54 -15.86,161.78 -47.58,235.26 -31.72,73.49 -75.07,137.45 -130.05,191.91 -54.99,54.46 -118.95,97.8 -191.91,129.52 -72.96,31.72 -151.2,47.58 -234.73,47.58 -96.23,0 -186.62,-21.14 -271.21,-63.43l-11.11 6.33c-43.35,24.32 -80.35,48.11 -111.55,71.37 -31.19,22.74 -47.05,50.75 -47.05,83.54 0,12.16 2.64,23.27 7.93,32.78 15.86,19.02 38.6,34.35 67.68,46.52 29.08,12.16 62.38,21.67 99.92,28.54 37.54,6.87 77.18,11.64 119.47,14.81 42.3,3.17 84.59,4.75 126.89,4.75 72.95,0 146.97,3.17 222.04,9.52 75.07,6.34 144.33,20.09 207.77,41.24 81.41,27.49 143.8,70.32 186.62,127.94 42.82,57.63 63.97,126.89 63.97,207.77 0,62.38 -12.69,118.42 -38.07,168.11 -25.38,49.69 -62.38,91.99 -111.03,127.42 -48.63,34.88 -108.37,61.32 -179.22,79.82 -70.84,18.5 -151.19,28.02 -241.07,28.02 -71.89,0 -142.21,-5.28 -210.93,-15.33 -68.73,-10.05 -135.34,-23.27 -200.37,-40.18 -65.02,-16.92 -128.47,-35.95 -189.79,-56.57 -61.33,-20.62 -119.48,-41.24 -174.46,-62.38l19.02 -52.35c8.46,-26.43 27.5,-50.22 57.1,-71.37 29.61,-21.14 62.38,-31.72 98.34,-31.72 24.32,0 48.1,3.17 71.36,9.52 23.27,6.34 45.48,13.22 66.63,21.68 11.63,5.28 31.72,13.21 60.26,23.79 28.55,10.04 62.91,20.61 103.09,30.13 40.18,10.05 86.18,19.03 137.45,26.96 51.29,7.94 105.74,11.64 163.89,11.64 31.72,0 68.73,-1.58 110.5,-4.76 41.76,-3.17 81.42,-11.63 118.95,-24.85 37.54,-13.21 69.25,-32.77 95.69,-59.21 26.43,-26.43 39.66,-62.38 39.66,-107.85l0 -6.34c0,-7.39 -0.53,-17.44 -2.12,-29.6 -1.58,-12.16 -6.34,-24.32 -13.22,-37.01 -6.87,-12.69 -17.44,-25.38 -31.71,-37.54 -14.28,-12.16 -33.84,-22.21 -59.21,-30.66 -63.44,-20.09 -129,-32.25 -196.14,-36.49 -67.67,-4.22 -132.17,-6.33 -194.55,-6.33 -67.14,0 -134.28,-5.29 -201.96,-16.4 -67.67,-11.1 -129.52,-29.07 -185.03,-53.92 -55.51,-24.85 -101.51,-56.57 -137.98,-95.15 -36.49,-38.07 -57.63,-85.65 -62.91,-141.16l0 -12.7c0,-10.57 2.12,-23.79 6.34,-39.12 4.23,-14.8 14.27,-32.78 30.13,-53.4 15.86,-20.61 40.18,-43.88 72.43,-68.73 32.25,-25.38 76.13,-53.93 132.7,-85.65 -53.4,-42.29 -94.1,-87.75 -123.18,-136.39 -29.07,-48.63 -50.75,-95.17 -65.02,-139.04 -14.27,-43.88 -23.27,-82.47 -26.44,-115.78 -3.17,-33.3 -4.75,-55.51 -4.75,-67.14l0 -7.94c0,-83.53 15.86,-161.77 47.58,-234.73 31.72,-72.95 75.07,-136.92 129.53,-191.91 54.45,-54.98 118.41,-98.33 191.9,-130.05 73.49,-31.72 151.73,-47.57 235.26,-47.57 66.62,0 133.22,12.15 199.84,36.46 66.62,24.33 131.11,59.75 193.49,106.26 27.5,-17.97 61.33,-34.88 100.98,-50.21 39.65,-15.33 84.06,-22.74 133.75,-22.74 26.44,0 56.57,3.7 90.4,10.58 33.84,6.86 67.68,15.32 101.51,26.43l-19.03 68.73zm-1202.2 428.75c0,57.1 10.57,109.97 31.19,159.13 20.61,49.17 48.64,91.46 84.06,126.89 35.42,35.41 77.71,63.44 126.89,84.06 49.16,20.62 102.03,31.19 159.13,31.19 57.1,0 110.5,-10.57 159.66,-31.19 49.16,-20.61 91.45,-48.64 126.88,-84.06 35.42,-35.42 63.44,-77.71 84.07,-126.89 20.61,-49.16 30.66,-102.03 30.66,-159.13 0,-57.09 -10.05,-110.49 -30.66,-159.66 -20.62,-49.16 -48.64,-91.45 -84.07,-126.88 -35.42,-35.42 -77.71,-63.44 -126.88,-84.07 -49.16,-20.61 -102.56,-30.65 -159.66,-30.65 -57.1,0 -109.97,10.04 -159.13,30.65 -49.17,20.62 -91.46,48.64 -126.89,84.07 -35.41,35.42 -63.44,77.71 -84.06,126.88 -20.62,49.17 -31.19,102.57 -31.19,159.66zm2196.63 853.28c33.84,-16.92 60.8,-30.66 80.35,-40.71 19.57,-10.05 41.24,-14.81 65.56,-14.81 17.97,0 36.47,2.12 55.51,6.34 19.03,4.23 42.82,15.33 71.37,34.36 31.72,21.67 66.62,38.6 104.15,49.7 37.54,11.63 76.13,17.44 116.31,17.44 43.35,0 86.7,-6.34 130.06,-18.5 43.34,-12.16 83,-30.66 118.94,-55.51 35.95,-24.86 65.55,-56.04 88.29,-93.57 22.74,-37.55 34.89,-82.48 37.02,-134.29 -2.12,-32.77 -7.94,-62.9 -17.98,-90.4 -10.05,-27.49 -27.5,-52.87 -52.34,-76.65 -24.86,-24.33 -58.68,-47.05 -100.98,-69.26 -42.3,-22.21 -96.22,-44.94 -161.77,-68.2l-33.31 -11.11c-54.98,-19.03 -109.43,-39.65 -163.35,-61.32 -53.93,-21.67 -102.57,-49.7 -145.92,-84.06 -43.35,-34.36 -78.24,-77.72 -105.2,-129.53 -26.97,-51.81 -40.71,-117.36 -40.71,-196.66 0,-64.49 14.27,-122.12 42.29,-172.35 28.02,-50.22 64.5,-92.51 109.43,-126.89 44.94,-34.36 95.17,-60.79 151.2,-78.77 56.04,-17.97 111.55,-28.01 166.53,-30.13l14.27 0c54.99,2.12 105.74,12.16 152.26,30.13 46.52,18.51 88.29,39.66 124.77,63.97 36.47,24.85 68.2,50.22 95.15,76.13 26.97,25.91 48.64,48.1 65.56,66.09l-30.14 25.38c-16.91,14.8 -34.89,27.49 -54.46,38.59 -19.56,11.11 -40.71,16.92 -62.9,16.92 -13.75,-1.06 -26.97,-4.23 -39.66,-9.52 -12.69,-5.28 -25.38,-11.63 -38.6,-19.03 -13.21,-7.39 -26.96,-15.33 -40.71,-23.79 -13.74,-8.47 -28.01,-16.39 -42.82,-23.8 -27.49,-14.8 -53.93,-24.32 -79.29,-28.55 -25.38,-4.22 -46,-6.34 -61.86,-6.34 -48.63,1.06 -89.87,9.52 -123.7,24.86 -33.84,15.33 -61.32,33.3 -83.01,54.45 -21.67,21.14 -37.54,43.35 -47.05,66.09 -9.52,22.73 -14.27,41.77 -14.27,57.62 0,43.36 9.52,80.36 28.02,110.5 18.5,30.14 42.82,56.05 73.48,77.19 30.67,21.14 65.55,39.12 104.15,53.92 38.6,14.8 77.71,29.08 117.89,42.83l15.87 4.75c60.26,20.09 119.47,43.88 177.62,71.38 58.16,27.49 109.98,60.79 154.91,99.38 44.94,38.6 80.89,84.59 108.38,137.98 27.49,53.4 41.24,116.84 41.24,189.8 0,68.73 -14.81,133.75 -44.41,194.55 -29.61,60.79 -70.32,114.72 -122.65,161.24 -52.35,46.52 -113.67,83.01 -183.99,109.97 -70.31,26.96 -145.91,40.71 -226.26,40.71 -98.34,0 -190.85,-22.74 -278.08,-67.67 -87.24,-44.94 -159.14,-108.38 -215.18,-190.85z"/>
 </g>
</svg>
